<?xml version="1.0" encoding="utf-8"?>
<!-- Generator: Adobe Illustrator 18.1.1, SVG Export Plug-In . SVG Version: 6.00 Build 0)  -->
<svg version="1.1" id="svg2444" xmlns:svg="http://www.w3.org/2000/svg"
	 xmlns="http://www.w3.org/2000/svg" xmlns:xlink="http://www.w3.org/1999/xlink" x="0px" y="0px" viewBox="526 262 36 36"
	 enable-background="new 526 262 36 36" xml:space="preserve">
<g id="layer1">
	<g id="g3257">
		<path id="path2438" fill="#4C75A3" d="M531.7,262.2h24.6c3,0,5.5,2.5,5.5,5.5v24.6c0,3-2.5,5.5-5.5,5.5h-24.6
			c-3,0-5.5-2.5-5.5-5.5v-24.6C526.2,264.7,528.7,262.2,531.7,262.2"/>
		<path id="path2442" fill="#FFFFFF" d="M543.7,287.1h1.5c0,0,0.4,0,0.7-0.3c0.2-0.2,0.2-0.6,0.2-0.6s0-1.9,0.9-2.2
			c0.9-0.3,2,1.9,3.3,2.7c0.9,0.6,1.6,0.5,1.6,0.5l3.2,0c0,0,1.7-0.1,0.9-1.4c-0.1-0.1-0.5-1-2.4-2.8c-2-1.9-1.8-1.6,0.7-4.9
			c1.5-2,2.1-3.2,1.9-3.7c-0.2-0.5-1.3-0.4-1.3-0.4l-3.7,0c0,0-0.3,0-0.5,0.1c-0.2,0.1-0.3,0.4-0.3,0.4s-0.6,1.5-1.3,2.8
			c-1.6,2.8-2.3,2.9-2.5,2.7c-0.6-0.4-0.5-1.6-0.5-2.5c0-2.7,0.4-3.8-0.8-4.1c-0.4-0.1-0.7-0.2-1.7-0.2c-1.3,0-2.4,0-3,0.3
			c-0.4,0.2-0.7,0.7-0.5,0.7c0.2,0,0.8,0.1,1.1,0.5c0.4,0.5,0.4,1.7,0.4,1.7s0.2,3.2-0.5,3.5c-0.5,0.3-1.2-0.3-2.6-2.8
			c-0.7-1.3-1.3-2.7-1.3-2.7s-0.1-0.3-0.3-0.4c-0.2-0.2-0.6-0.2-0.6-0.2l-3.5,0c0,0-0.5,0-0.7,0.2c-0.2,0.2,0,0.6,0,0.6
			s2.7,6.4,5.8,9.6C540.5,287.3,543.7,287.1,543.7,287.1"/>
	</g>
</g>
</svg>
